<?xml version="1.0" encoding="UTF-8" standalone="no"?>
<!-- Created with Inkscape (http://www.inkscape.org/) -->

<svg
   version="1.1"
   id="svg824"
   xml:space="preserve"
   width="2304"
   height="1728"
   viewBox="0 0 2304 1728"
   sodipodi:docname="Volume_Control_HandleGuard.svg"
   inkscape:version="1.1 (c68e22c387, 2021-05-23)"
   xmlns:inkscape="http://www.inkscape.org/namespaces/inkscape"
   xmlns:sodipodi="http://sodipodi.sourceforge.net/DTD/sodipodi-0.dtd"
   xmlns="http://www.w3.org/2000/svg"
   xmlns:svg="http://www.w3.org/2000/svg"><defs
     id="defs828" /><sodipodi:namedview
     id="namedview826"
     pagecolor="#505050"
     bordercolor="#ffffff"
     borderopacity="1"
     inkscape:pageshadow="0"
     inkscape:pageopacity="0"
     inkscape:pagecheckerboard="1"
     showgrid="false"
     inkscape:zoom="1.4060295"
     inkscape:cx="15.646898"
     inkscape:cy="240.74887"
     inkscape:window-width="1920"
     inkscape:window-height="1051"
     inkscape:window-x="-9"
     inkscape:window-y="-9"
     inkscape:window-maximized="1"
     inkscape:current-layer="g830" /><g
     id="g830"
     inkscape:groupmode="layer"
     inkscape:label="Volume_Control_HandleGuard"
     transform="matrix(1.3333333,0,0,-1.3333333,0,1728)"><g
       aria-label="The Thing"
       transform="matrix(0.999678,0,0,-1,98.9589,1068.9469)"
       id="text834"
       style="font-size:20px;font-family:'Century Gothic';-inkscape-font-specification:CenturyGothic;fill:none;stroke:#0000ff;stroke-opacity:1;stroke-width:0.02835103;stroke-miterlimit:4;stroke-dasharray:none"><path
         d="m 0.32226563,-12.96875 v -1.396484 H 8.203125 v 1.396484 H 5 V 0 H 3.5351563 v -12.96875 z"
         id="path1008"
         style="fill:none;stroke:#0000ff;stroke-opacity:1;stroke-width:0.02835103;stroke-miterlimit:4;stroke-dasharray:none" /><path
         d="m 10.040694,-14.726563 h 1.367188 v 6.0058599 q 0.830078,-1.09375 1.826172,-1.6308599 0.996093,-0.546875 2.158203,-0.546875 1.191406,0 2.109375,0.605469 0.927734,0.605469 1.367187,1.6308596 0.439453,1.015625 0.439453,3.1933594 V 0 h -1.367187 v -5.0683594 q 0,-1.8359375 -0.146485,-2.4511718 -0.253906,-1.0546876 -0.927734,-1.5820313 -0.664062,-0.5371094 -1.748047,-0.5371094 -1.240234,0 -2.226562,0.8203125 -0.976563,0.8203125 -1.289063,2.03125 -0.195312,0.78125 -0.195312,2.890625 V 0 h -1.367188 z"
         id="path1010"
         style="fill:none;stroke:#0000ff;stroke-opacity:1;stroke-width:0.02835103;stroke-miterlimit:4;stroke-dasharray:none" /><path
         d="m 31.182077,-3.5253906 1.152344,0.6054687 q -0.566406,1.1132813 -1.308594,1.796875 -0.742187,0.68359377 -1.669921,1.0449219 -0.927735,0.3515625 -2.09961,0.3515625 -2.597656,0 -4.0625,-1.6992187 -1.464844,-1.7089844 -1.464844,-3.8574219 0,-2.0214844 1.240235,-3.6035157 1.572265,-2.0117192 4.208984,-2.0117192 2.714844,0 4.335938,2.0605474 1.152343,1.4550781 1.171875,3.6328125 h -9.550782 q 0.03906,1.8554687 1.181641,3.046875 1.142578,1.1816406 2.822266,1.1816406 0.810547,0 1.572265,-0.2832031 0.771485,-0.2832031 1.308594,-0.7519532 0.537109,-0.46875 1.162109,-1.5136718 z m 0,-2.8613281 q -0.273437,-1.09375 -0.800781,-1.7480469 -0.517578,-0.6542969 -1.376953,-1.0546875 -0.859375,-0.4003907 -1.806641,-0.4003907 -1.5625,0 -2.685546,1.0058594 -0.820313,0.7324219 -1.240235,2.1972657 z"
         id="path1012"
         style="fill:none;stroke:#0000ff;stroke-opacity:1;stroke-width:0.02835103;stroke-miterlimit:4;stroke-dasharray:none" /><path
         d="m 39.569622,-12.96875 v -1.396484 h 7.880859 v 1.396484 H 44.247356 V 0 h -1.464843 v -12.96875 z"
         id="path1014"
         style="fill:none;stroke:#0000ff;stroke-opacity:1;stroke-width:0.02835103;stroke-miterlimit:4;stroke-dasharray:none" /><path
         d="m 49.288052,-14.726563 h 1.367187 v 6.0058599 q 0.830078,-1.09375 1.826172,-1.6308599 0.996094,-0.546875 2.158203,-0.546875 1.191406,0 2.109375,0.605469 0.927734,0.605469 1.367188,1.6308596 0.439453,1.015625 0.439453,3.1933594 V 0 h -1.367188 v -5.0683594 q 0,-1.8359375 -0.146484,-2.4511718 -0.253906,-1.0546876 -0.927735,-1.5820313 -0.664062,-0.5371094 -1.748046,-0.5371094 -1.240235,0 -2.226563,0.8203125 -0.976562,0.8203125 -1.289062,2.03125 -0.195313,0.78125 -0.195313,2.890625 V 0 h -1.367187 z"
         id="path1016"
         style="fill:none;stroke:#0000ff;stroke-opacity:1;stroke-width:0.02835103;stroke-miterlimit:4;stroke-dasharray:none" /><path
         d="m 61.962639,-15 q 0.46875,0 0.800781,0.332031 0.332031,0.332031 0.332031,0.800781 0,0.458985 -0.332031,0.791016 -0.332031,0.332031 -0.800781,0.332031 -0.458985,0 -0.791016,-0.332031 -0.332031,-0.332031 -0.332031,-0.791016 0,-0.46875 0.332031,-0.800781 Q 61.503654,-15 61.962639,-15 Z m -0.683594,4.375 h 1.376953 V 0 h -1.376953 z"
         id="path1018"
         style="fill:none;stroke:#0000ff;stroke-opacity:1;stroke-width:0.02835103;stroke-miterlimit:4;stroke-dasharray:none" /><path
         d="m 65.482838,-10.625 h 1.367187 v 1.9042969 q 0.820313,-1.09375 1.816406,-1.6308599 0.996094,-0.546875 2.167969,-0.546875 1.191406,0 2.109375,0.605469 0.927735,0.605469 1.367188,1.6308596 0.439453,1.0253907 0.439453,3.1933594 V 0 h -1.357422 v -5.0683594 q 0,-1.8359375 -0.15625,-2.4511718 -0.244141,-1.0546876 -0.917969,-1.5820313 -0.673828,-0.5371094 -1.757812,-0.5371094 -1.240235,0 -2.226563,0.8203125 -0.976562,0.8203125 -1.289062,2.03125 -0.195313,0.7910157 -0.195313,2.890625 V 0 h -1.367187 z"
         id="path1020"
         style="fill:none;stroke:#0000ff;stroke-opacity:1;stroke-width:0.02835103;stroke-miterlimit:4;stroke-dasharray:none" /><path
         d="m 86.8293,-10.625 h 1.376953 v 8.4667969 q 0,2.2363281 -0.390625,3.2714843 -0.537109,1.4648438 -1.865234,2.2558594 -1.328125,0.7910156 -3.19336,0.7910156 -1.367187,0 -2.460937,-0.3906249 Q 79.212112,3.3886719 78.528519,2.734375 77.844925,2.0898438 77.268753,0.83984375 h 1.484375 q 0.605469,1.05468745 1.5625,1.56250005 0.957031,0.5078125 2.373047,0.5078125 1.396484,0 2.353516,-0.5273438 Q 86.008987,1.8652344 86.419144,1.0742187 86.8293,0.28320313 86.8293,-1.4746094 v -0.546875 Q 86.057816,-1.0449219 84.944534,-0.51757812 83.831253,0 82.581253,0 81.116409,0 79.827347,-0.72265625 78.538284,-1.4550781 77.835159,-2.6855469 77.132034,-3.9160156 77.132034,-5.390625 q 0,-1.4746094 0.732422,-2.7441406 0.732422,-1.2792969 2.021485,-2.0214844 1.298828,-0.742188 2.734375,-0.742188 1.191406,0 2.216796,0.498047 1.035157,0.4882816 1.992188,1.6210941 z m -4.033203,1.0449219 q -1.16211,0 -2.158203,0.5664062 -0.996094,0.5566406 -1.5625,1.5527344 -0.566407,0.9863281 -0.566407,2.1386719 0,1.7480468 1.171875,2.890625 1.171875,1.1425781 3.03711,1.1425781 1.884765,0 3.027344,-1.1328125 1.152343,-1.1328125 1.152343,-2.9785156 0,-1.2011719 -0.527343,-2.1386719 -0.527344,-0.9472656 -1.494141,-1.4941406 -0.966797,-0.546875 -2.080078,-0.546875 z"
         id="path1022"
         style="fill:none;stroke:#0000ff;stroke-opacity:1;stroke-width:0.02835103;stroke-miterlimit:4;stroke-dasharray:none" /></g><g
       id="g836"
       transform="translate(250.6,1100.1)"
       style="fill:none;stroke:#ff0000;stroke-opacity:1;stroke-width:0.02834646;stroke-miterlimit:4;stroke-dasharray:none"><path
         d="M 0,0 H 1.2 L 2.3,-0.1 3.5,-0.2 4.6,-0.4 5.8,-0.7 6.9,-1 8,-1.4 l 1.1,-0.4 1.1,-0.5 1,-0.5 1,-0.6 1,-0.6 0.9,-0.7 0.9,-0.8 0.9,-0.7 0.9,-0.8 0.8,-0.9 0.7,-0.9 0.7,-0.9 0.7,-1 0.6,-1 0.5,-1 0.5,-1.1 0.5,-1 0.4,-1.1 0.3,-1.2 0.3,-1.1 0.3,-1.1 0.1,-1.2 0.2,-1.2 v -1.1 -1.2 -1.2 l -0.2,-1.1 -0.1,-1.2 -0.3,-1.1 -0.3,-1.2 -0.3,-1.1 -0.4,-1.1 -0.5,-1 -0.5,-1.1 -0.5,-1 -0.6,-1 -0.7,-1 -0.7,-0.9 -0.7,-0.9 -0.8,-0.9 -0.9,-0.8 -0.9,-0.8 -0.9,-0.7 -0.9,-0.7 -1,-0.6 -1,-0.6 -1,-0.5 L 9.1,-45 8,-45.4 6.9,-45.8 5.8,-46.1 4.6,-46.4 3.5,-46.6 2.3,-46.7 1.2,-46.8 H 0"
         style="fill:none;stroke:#ff0000;stroke-width:0.02834646;stroke-linecap:butt;stroke-linejoin:miter;stroke-miterlimit:4;stroke-dasharray:none;stroke-opacity:1"
         id="path838" /></g><g
       id="g840"
       transform="translate(49,1100.1)"
       style="fill:none;stroke:#ff0000;stroke-opacity:1;stroke-width:0.02834646;stroke-miterlimit:4;stroke-dasharray:none"><path
         d="M 0,0 V -10.8 M 201.6,0 H 0 M 201.6,-46.8 H 0 M 0,-36 v -10.8 m 0,36 h -28.8 m 0,0 V -36 m 0,0 H 0"
         style="fill:none;stroke:#ff0000;stroke-width:0.02834646;stroke-linecap:round;stroke-linejoin:round;stroke-miterlimit:4;stroke-dasharray:none;stroke-opacity:1"
         id="path842" /></g></g></svg>
